<svg width="48" height="48" viewBox="0 0 48 48" fill="none" xmlns="http://www.w3.org/2000/svg">
    <path d="M18.09 26.091v-5.555a5.82 5.82 0 0 1 9.43-4.566l.112.088a5.993 5.993 0 0 1 2.277 4.701v5.332l1.81 2.289a1 1 0 0 1-.785 1.62H17.066a1 1 0 0 1-.785-1.62l1.81-2.288z" stroke="#1D1D1F" stroke-width="2"/>
    <path d="M26 30.67c0 1.387-.991 2.33-2 2.33s-2-.943-2-2.33c0-.349.065-.477.083-.506l.001-.001c.006-.01.021-.036.12-.07.129-.044.333-.076.663-.088.221-.007.444-.005.7-.003l.433.002c.157 0 .3 0 .434-.002.255-.002.478-.004.7.003.329.012.533.044.663.088.098.034.113.06.119.07v.001c.019.03.084.157.084.506z" stroke="#1D1D1F" stroke-width="2"/>
</svg>
