<svg width="48" height="48" viewBox="0 0 48 48" fill="none" xmlns="http://www.w3.org/2000/svg">
    <path fill-rule="evenodd" clip-rule="evenodd" d="M29 23.5c0 3.476-3.237 6.5-7.5 6.5v1h-.006.006c4.694 0 8.5-3.358 8.5-7.5 0-4.142-3.806-7.5-8.5-7.5S13 19.358 13 23.5c0 2.776 1.71 5.2 4.25 6.497v-1.14C15.263 27.668 14 25.672 14 23.5c0-3.476 3.237-6.5 7.5-6.5s7.5 3.024 7.5 6.5z" fill="#1D1D1F"/>
    <path d="M17.25 29.333 16.187 32l5.313-1.5" stroke="#1D1D1F" stroke-linecap="round"/>
    <path d="M28 19s6.318 1.233 6 6.5c-.13 2.162-.767 3.778-1.562 4.844-.25.336-.332.782-.151 1.16L33 33l-3.833-1.523a1.01 1.01 0 0 0-.371-.07c-3.342-.002-4.315-.048-5.296-.907" stroke="#1D1D1F" stroke-linecap="square"/>
</svg>
