<svg width="24" height="24" viewBox="0 0 24 24" fill="none" xmlns="http://www.w3.org/2000/svg">
    <path fill-rule="evenodd" clip-rule="evenodd" d="M10.5 15.47c3.159 0 5.5-2.233 5.5-4.735C16 8.234 13.659 6 10.5 6S5 8.234 5 10.735c0 1.52.864 2.94 2.25 3.822v1.146C5.307 14.712 4 12.858 4 10.735 4 7.568 6.91 5 10.5 5S17 7.568 17 10.735c0 3.168-2.91 5.736-6.5 5.736h-.008.008v-1z" fill="#909090"/>
    <path d="m7.25 15.196-.812 2.04 4.062-1.148" stroke="#909090" stroke-linecap="round"/>
    <path d="M15.47 7.294s4.832.943 4.589 4.97c-.095 1.566-.536 2.758-1.1 3.572-.238.345-.32.79-.14 1.168l.475.996-2.89-1.148a1.006 1.006 0 0 0-.37-.07c-2.519-.002-3.258-.041-4.005-.694" stroke="#909090" stroke-linecap="square"/>
</svg>
