<svg width="48" height="48" viewBox="0 0 48 48" fill="none" xmlns="http://www.w3.org/2000/svg">
    <circle cx="23.746" cy="20" r="4.5" stroke="#1D1D1F"/>
    <mask id="2nh3yrxe9a" fill="#fff">
        <path fill-rule="evenodd" clip-rule="evenodd" d="M32.567 31.89c.172.578-.298 1.11-.9 1.11h-15.73c-.603 0-1.073-.532-.901-1.11 1.011-3.388 4.552-5.89 8.765-5.89 4.213 0 7.754 2.502 8.766 5.89z"/>
    </mask>
    <path d="m32.567 31.89.958-.285-.958.285zm-17.531 0-.958-.285.958.285zm.9 2.11h15.73v-2h-15.73v2zm.058-1.824C16.86 29.276 19.96 27 23.801 27v-2c-4.583 0-8.566 2.727-9.723 6.605l1.916.571zM23.801 27c3.843 0 6.942 2.276 7.807 5.176l1.917-.572C32.368 27.728 28.385 25 23.8 25v2zm7.865 7c1.146 0 2.257-1.061 1.859-2.395l-1.917.571a.18.18 0 0 1 .031-.155c.02-.023.033-.021.027-.021v2zm-15.73-2c-.005 0 .008-.002.027.02.01.013.025.036.032.07a.18.18 0 0 1 0 .086l-1.917-.572C13.679 32.94 14.79 34 15.936 34v-2z" fill="#000" mask="url(#2nh3yrxe9a)"/>
</svg>
