<svg width="24" height="24" viewBox="0 0 24 24" fill="none" xmlns="http://www.w3.org/2000/svg">
    <path d="M11.74 19.5a.5.5 0 1 0 0-1v1zm6.76-7.24a.5.5 0 0 0 1 0h-1zm-6.76 6.24H8v1h3.74v-1zM5.5 16V8h-1v8h1zM8 5.5h8v-1H8v1zM18.5 8v4.26h1V8h-1zM16 5.5A2.5 2.5 0 0 1 18.5 8h1A3.5 3.5 0 0 0 16 4.5v1zM5.5 8A2.5 2.5 0 0 1 8 5.5v-1A3.5 3.5 0 0 0 4.5 8h1zM8 18.5A2.5 2.5 0 0 1 5.5 16h-1A3.5 3.5 0 0 0 8 19.5v-1zM15 16.5a.5.5 0 0 0 0 1v-1zm4 1a.5.5 0 0 0 0-1v1zm-4 0h4v-1h-4v1z" fill="#4C4C4C"/>
    <path d="M16.5 19a.5.5 0 0 0 1 0h-1zm1-4a.5.5 0 0 0-1 0h1zm0 4v-4h-1v4h1zM9 9.5a.5.5 0 0 0 0 1v-1zm6 1a.5.5 0 0 0 0-1v1zm-6 0h6v-1H9v1zM9 12.5a.5.5 0 0 0 0 1v-1zm4 1a.5.5 0 0 0 0-1v1zm-4 0h4v-1H9v1z" fill="#4C4C4C"/>
</svg>
